<svg xmlns="http://www.w3.org/2000/svg" width="282.4" height="141"><path fill-rule="evenodd" stroke="#000" stroke-linecap="round" stroke-width=".9" d="M105 47v1a70 70 0 0 0-11-8 84 84 0 0 0-5-4 90 90 0 0 0-19-7 99 99 0 0 0 0 0q-11-3-22-3a87 87 0 0 0-12 1 74 74 0 0 0-6 1l-15 5q-7 4-10 9-4 5-4 11a15 15 0 0 0 4 11 19 19 0 0 0 1 0 26 26 0 0 0 5 4 36 36 0 0 0 6 3 47 47 0 0 0 11 2 57 57 0 0 0 5 0 67 67 0 0 0 16-2 75 75 0 0 0 1 0q9-2 17-6 8-3 15-8a96 96 0 0 0 7-5 77 77 0 0 0 5-5q5-4 8-9a36 36 0 0 0 0 0 25 25 0 0 0 2-4l1-6a5 5 0 0 0 0-1l-1-1a3 3 0 0 0 0-1l-3-1-6 2a40 40 0 0 0-3 2l-5 3-8 8-7 9a52 52 0 0 0-4 7 45 45 0 0 0-1 2l-2 10a17 17 0 0 0 1 3l2 4q2 3 6 3l9-2a52 52 0 0 0 6-4 69 69 0 0 0 5-3 81 81 0 0 0 8-7 93 93 0 0 0 2-3q6-5 10-11t6-13a39 39 0 0 0 2-7 32 32 0 0 0 1-5 21 21 0 0 0-1-3v-3a10 10 0 0 0-1-2 10 10 0 0 0-3-3 10 10 0 0 0-2-1 17 17 0 0 0-5-1 19 19 0 0 0-1 0 26 26 0 0 0-5 0l-8 3a73 73 0 0 0-8 4 94 94 0 0 0-7 4L68 32 55 46a77 77 0 0 0-8 14 70 70 0 0 0-1 3 48 48 0 0 0-3 12 43 43 0 0 0 0 5l1 10a19 19 0 0 0 1 1q2 5 7 8 4 2 9 2a34 34 0 0 0 2 0l11-2a51 51 0 0 0 8-3 60 60 0 0 0 3-1 69 69 0 0 0 8-5 85 85 0 0 0 4-4q6-4 12-11l4-4h1l-4 4a136 136 0 0 1-8 8 112 112 0 0 1-4 4 82 82 0 0 1-8 6 68 68 0 0 1-4 2q-6 4-12 5a42 42 0 0 1-10 2 38 38 0 0 1-1 0q-6 0-11-2a20 20 0 0 1-2 0 21 21 0 0 1-4-4 18 18 0 0 1-3-3q-3-4-4-9l-1-9q0-9 3-17a66 66 0 0 1 8-16 73 73 0 0 1 1 0q6-8 13-14l15-11a87 87 0 0 1 11-5 75 75 0 0 1 5-2 57 57 0 0 1 8-2 42 42 0 0 1 7-1q4 0 7 2 3 1 5 4a11 11 0 0 1 2 4l1 3a23 23 0 0 1 0 2q0 6-3 12a61 61 0 0 1-6 12 69 69 0 0 1 0 1l-10 12q-5 6-11 10l-11 7-8 2a17 17 0 0 1-1 0 9 9 0 0 1-7-3 11 11 0 0 1 0 0q-3-2-3-8a24 24 0 0 1 1-6 32 32 0 0 1 1-4 52 52 0 0 1 4-8 59 59 0 0 1 2-1l7-10a82 82 0 0 1 5-5 70 70 0 0 1 3-2 58 58 0 0 1 3-3l4-2a34 34 0 0 1 0-1 23 23 0 0 1 2-1l4-1a7 7 0 0 1 1 0l3 1a5 5 0 0 1 1 1 5 5 0 0 1 1 3 6 6 0 0 1 0 0 14 14 0 0 1-1 5l-2 5-8 10a83 83 0 0 1-8 6 101 101 0 0 1-5 4 110 110 0 0 1-14 8 121 121 0 0 1-1 0q-8 4-17 6-8 2-17 2a55 55 0 0 1-9 0 48 48 0 0 1-4-1 42 42 0 0 1-6-2 34 34 0 0 1-4-2 25 25 0 0 1-5-4 20 20 0 0 1-2-3q-3-4-3-9 0-6 4-11a27 27 0 0 1 5-6 36 36 0 0 1 4-3 48 48 0 0 1 8-4 65 65 0 0 1 8-2 78 78 0 0 1 11-2 99 99 0 0 1 8 0q11 0 22 3a91 91 0 0 1 18 7 85 85 0 0 1 2 1 85 85 0 0 1 10 6 72 72 0 0 1 5 5Zm154 28h0l10-11 6-7h7l-7 6-7 7a137 137 0 0 0-5 4 112 112 0 0 0-2 2 361 361 0 0 1-10 16 400 400 0 0 1-1 2l-13 18a122 122 0 0 1-13 13 112 112 0 0 1-2 1 72 72 0 0 1-11 8 63 63 0 0 1-5 3q-8 4-17 4-7 0-11-3a8 8 0 0 1-4-6 11 11 0 0 1 0-1 9 9 0 0 1 1-4 8 8 0 0 1 1-2l5-3v1l-4 3a7 7 0 0 0-2 4 9 9 0 0 0 0 1q0 4 4 6a12 12 0 0 0 4 2l3 1a24 24 0 0 0 2 0 29 29 0 0 0 9-2 39 39 0 0 0 6-2 71 71 0 0 0 9-6 91 91 0 0 0 6-5 158 158 0 0 0 12-12 182 182 0 0 0 4-4l14-17a587 587 0 0 0 10-14 509 509 0 0 0 3-4v1h-2 0l-7 7a61 61 0 0 1-3 2l-4 3a26 26 0 0 1-2 0l-4 1q-3 0-3-3a11 11 0 0 1 2-6 13 13 0 0 1 0 0 30 30 0 0 1 3-4 37 37 0 0 1 2-2l6-5a52 52 0 0 0 2-2l2-2a30 30 0 0 0 1-1l1-3a5 5 0 0 0 1-1q0-2-2-2l-3 1a23 23 0 0 0-1 1 38 38 0 0 0-3 1l-2 2a66 66 0 0 0-1 1l-7 6-1 2h-1l1-2a76 76 0 0 1 5-4l4-4a42 42 0 0 1 1-1q5-3 8-3a3 3 0 0 1 1 0h1a7 7 0 0 1 1 1 3 3 0 0 1 1 1v1a8 8 0 0 1 0 1 9 9 0 0 1-1 4 12 12 0 0 1-1 2 30 30 0 0 1-3 3 37 37 0 0 1-2 2l-6 5a63 63 0 0 0-3 2l-2 3q-3 2-3 4a2 2 0 0 0 0 0 1 1 0 0 0 1 1 3 3 0 0 0 1 1 2 2 0 0 0 1 0l5-2a45 45 0 0 0 2-2l3-2a79 79 0 0 0 2-1 70 70 0 0 0 6-6 64 64 0 0 0 1 0m-87 3a171 171 0 0 1 0-1 157 157 0 0 1 8-8l9-7a94 94 0 0 1 2-2l5-3a27 27 0 0 1 2-1l2-1a4 4 0 0 1 1 0 5 5 0 0 1 0 0l2 1a3 3 0 0 1 0 1 4 4 0 0 1 0 1l-1 2a8 8 0 0 1-1 1 13 13 0 0 1-2 2 16 16 0 0 1-2 1l-6 1a9 9 0 0 1-1 0h-2a2 2 0 0 1 0-1v1a2 2 0 0 0 0 1h2a17 17 0 0 0 2 1 14 14 0 0 0 2 0 20 20 0 0 0 3-1 15 15 0 0 0 6-2 14 14 0 0 0 0 0l2-2a6 6 0 0 0 2-4q0-2-2-3l-3-1a5 5 0 0 0-1 0q-4 0-11 6a101 101 0 0 0-3 2l-17 16h2l2-4h-1l20-22 23-25a356 356 0 0 1 1-1l2-3a608 608 0 0 1 4-4l7-8 8-7a56 56 0 0 1 1-1l3-2a12 12 0 0 1 1-1h-8l-44 50 2 2-2-2-18 20-8 10-9 7h7l9-9Zm62-6 1-1h1l-1 1-9 8-10 6a30 30 0 0 1-2 1l-6 1a6 6 0 0 1-2 0 5 5 0 0 1-2-2 6 6 0 0 1-1-2v-2a12 12 0 0 1 0-1l2-6a21 21 0 0 1 0 0 31 31 0 0 1 2-5 38 38 0 0 1 3-2l7-6a40 40 0 0 1 6-4 37 37 0 0 1 2 0 25 25 0 0 1 4-2 20 20 0 0 1 4 0 7 7 0 0 1 1 0l2 1 1 1a4 4 0 0 1-1 2l-1 2a12 12 0 0 1-1 1 22 22 0 0 1-2 2l-3 2a38 38 0 0 1-1 0l-8 3a30 30 0 0 1-4 1 24 24 0 0 1-4 1l1-1a29 29 0 0 0 5-1 35 35 0 0 0 3-1 36 36 0 0 0 6-2 33 33 0 0 0 1-1 32 32 0 0 0 2-1l3-2a19 19 0 0 0 0-1l2-4a2 2 0 0 0 0 0l-1-1a5 5 0 0 0-1 0 7 7 0 0 0-2 0l-3 2a27 27 0 0 0-1 0l-7 5-7 7a59 59 0 0 0-3 4l-3 4a22 22 0 0 0-1 2l-1 4a6 6 0 0 0 0 0 4 4 0 0 0 0 1q1 2 3 2a7 7 0 0 0 0 0 13 13 0 0 0 3-1l5-1a45 45 0 0 0 5-3 61 61 0 0 0 4-3l9-8Zm-28 0 1-1h1v1l-9 8a65 65 0 0 1-4 3 48 48 0 0 1-4 3 24 24 0 0 1-3 1l-2 1a10 10 0 0 1-3 0 5 5 0 0 1-2 0 7 7 0 0 1-1-1 5 5 0 0 1-2-3 7 7 0 0 1 0-1q0-3 2-5l3-3a40 40 0 0 0 2-3 33 33 0 0 0 2-1 7 7 0 0 0 0-1 5 5 0 0 0 1-2 7 7 0 0 0 0-1 5 5 0 0 0 0-1l-1-2h0a9 9 0 0 1 1 0l1 2a2 2 0 0 1 0 0v2l-1 5-3 4a35 35 0 0 0-3 3 32 32 0 0 0 0 1l-1 4a4 4 0 0 0 0 1v1a1 1 0 0 0 1 0 7 7 0 0 0 0 1h1a10 10 0 0 0 3-1l2-1a23 23 0 0 0 2 0 40 40 0 0 0 4-3l4-3a65 65 0 0 0 0 0l8-8Zm-97 16a3 3 0 0 0 2 0 5 5 0 0 0 0 0l4-1a23 23 0 0 0 1-1 47 47 0 0 0 1 0l7-6 8-7a232 232 0 0 0 2-2l3-4a117 117 0 0 0 3-3 27 27 0 0 0 1-1l2-5a4 4 0 0 0 0 0q0-2-2-2a7 7 0 0 0-2 0l-8 1a38 38 0 0 0-1 1 42 42 0 0 0-8 4l-7 6a38 38 0 0 0-2 3 30 30 0 0 0-4 5 23 23 0 0 0 0 0l-1 3a13 13 0 0 0-1 4l1 4 1 1Zm31 0a3 3 0 0 0 1 0 5 5 0 0 0 0 0l4-1a23 23 0 0 0 2-1 47 47 0 0 0 0 0q4-2 7-6l8-7a232 232 0 0 0 2-2l3-4a117 117 0 0 0 3-3 27 27 0 0 0 1-1l2-5a4 4 0 0 0 0 0q0-2-2-2a7 7 0 0 0-1 0l-9 1a38 38 0 0 0-1 1 42 42 0 0 0-7 4l-8 6a38 38 0 0 0-2 3 30 30 0 0 0-3 5 23 23 0 0 0-1 0l-1 3a13 13 0 0 0 0 4v4l2 1Zm-29 0a5 5 0 0 0 1-1l3-1a26 26 0 0 0 1 0l7-6 8-7 8-9a79 79 0 0 0 0 0l3-5a4 4 0 0 0 0-1l-2-1a5 5 0 0 0 0 0l-5 1a24 24 0 0 0 0 0 38 38 0 0 0-3 2l-3 2a63 63 0 0 0-1 1 89 89 0 0 0-6 5 99 99 0 0 0-1 0 82 82 0 0 0-5 6 73 73 0 0 0-1 1 58 58 0 0 0-2 3l-2 2a33 33 0 0 0 0 1 18 18 0 0 0-1 2l-1 2a5 5 0 0 0 0 1 3 3 0 0 0 0 1l2 1Zm30 0a5 5 0 0 0 1-1l3-1a26 26 0 0 0 1 0l7-6 9-7 7-9a79 79 0 0 0 0 0l3-5a4 4 0 0 0 0-1l-2-1a5 5 0 0 0 0 0l-5 1a24 24 0 0 0 0 0 38 38 0 0 0-3 2l-3 2a63 63 0 0 0-1 1 89 89 0 0 0-6 5 99 99 0 0 0 0 0 82 82 0 0 0-6 6 73 73 0 0 0-1 1 58 58 0 0 0-2 3l-2 2a33 33 0 0 0 0 1 18 18 0 0 0-1 2l-1 2a5 5 0 0 0 0 1 3 3 0 0 0 0 1l2 1Zm3-17-1 1-6 5-5 2a5 5 0 0 1-2 0q-2 0-2-3a9 9 0 0 1 1-4 11 11 0 0 1 0 0 15 15 0 0 1 1-2l3-3h5l-6 6a5 5 0 0 0-1 2 5 5 0 0 0-1 2 3 3 0 0 0 0 1l2 1a4 4 0 0 0 1 0l3-2a26 26 0 0 0 3-2l2-2a47 47 0 0 0 1-1l1-1h1Zm30 0-1 1-6 5-5 2a5 5 0 0 1-1 0q-3 0-3-3a9 9 0 0 1 1-4 11 11 0 0 1 0 0 15 15 0 0 1 1-2l3-3h5l-6 6a5 5 0 0 0-1 2 5 5 0 0 0-1 2 3 3 0 0 0 0 1l2 1a4 4 0 0 0 1 0l4-2a26 26 0 0 0 2-2l2-2a47 47 0 0 0 1-1l1-1h1Z" font-size="12" style="stroke:#000;stroke-width:.25mm;fill:#000" vector-effect="non-scaling-stroke"/></svg>